<svg xmlns="http://www.w3.org/2000/svg" version="1.1" xmlns:xlink="http://www.w3.org/1999/xlink" xmlns:svgjs="http://svgjs.com/svgjs" width="1440" height="300" preserveAspectRatio="none" viewBox="0 0 1440 300"><g mask="url(&quot;#SvgjsMask1063&quot;)" fill="none"><rect width="1440" height="300" x="0" y="0" fill="rgba(24, 3, 93, 1)"></rect><path d="M-53.44 190.02L-53.44 190.02" stroke="#132e65" stroke-width="1.5"></path><path d="M-53.44 190.02L101.99 207.79" stroke="#132e65" stroke-width="1.5"></path><path d="M-53.44 190.02L-106.79 367.38" stroke="#132e65" stroke-width="1.5"></path><path d="M-106.79 367.38L-106.79 367.38" stroke="#132e65" stroke-width="1.5"></path><path d="M-106.79 367.38L98.11 388.73" stroke="#132e65" stroke-width="1.5"></path><path d="M-106.79 367.38L101.99 207.79" stroke="#132e65" stroke-width="1.5"></path><path d="M-106.79 367.38L209.85 383.91" stroke="#132e65" stroke-width="1.5"></path><path d="M-106.79 367.38L386.87 251.61" stroke="#132e65" stroke-width="1.5"></path><path d="M101.99 207.79L101.99 207.79" stroke="#132e65" stroke-width="1.5"></path><path d="M101.99 207.79L98.11 388.73" stroke="#132e65" stroke-width="1.5"></path><path d="M101.99 207.79L209.85 383.91" stroke="#132e65" stroke-width="1.5"></path><path d="M98.11 388.73L98.11 388.73" stroke="#132e65" stroke-width="1.5"></path><path d="M98.11 388.73L209.85 383.91" stroke="#132e65" stroke-width="1.5"></path><path d="M209.85 383.91L209.85 383.91" stroke="#132e65" stroke-width="1.5"></path><path d="M209.85 383.91L401.82 351.62" stroke="#132e65" stroke-width="1.5"></path><path d="M209.85 383.91L386.87 251.61" stroke="#132e65" stroke-width="1.5"></path><path d="M386.87 251.61L386.87 251.61" stroke="#132e65" stroke-width="1.5"></path><path d="M386.87 251.61L401.82 351.62" stroke="#132e65" stroke-width="1.5"></path><path d="M386.87 251.61L515.62 248.27" stroke="#132e65" stroke-width="1.5"></path><path d="M386.87 251.61L489.55 404.77" stroke="#132e65" stroke-width="1.5"></path><path d="M401.82 351.62L401.82 351.62" stroke="#132e65" stroke-width="1.5"></path><path d="M401.82 351.62L489.55 404.77" stroke="#132e65" stroke-width="1.5"></path><path d="M401.82 351.62L515.62 248.27" stroke="#132e65" stroke-width="1.5"></path><path d="M515.62 248.27L515.62 248.27" stroke="#132e65" stroke-width="1.5"></path><path d="M515.62 248.27L669.27 239.71" stroke="#132e65" stroke-width="1.5"></path><path d="M515.62 248.27L489.55 404.77" stroke="#132e65" stroke-width="1.5"></path><path d="M489.55 404.77L489.55 404.77" stroke="#132e65" stroke-width="1.5"></path><path d="M489.55 404.77L663.63 394.39" stroke="#132e65" stroke-width="1.5"></path><path d="M669.27 239.71L669.27 239.71" stroke="#132e65" stroke-width="1.5"></path><path d="M669.27 239.71L811.17 220.54" stroke="#132e65" stroke-width="1.5"></path><path d="M669.27 239.71L663.63 394.39" stroke="#132e65" stroke-width="1.5"></path><path d="M663.63 394.39L663.63 394.39" stroke="#132e65" stroke-width="1.5"></path><path d="M663.63 394.39L848.08 382.31" stroke="#132e65" stroke-width="1.5"></path><path d="M663.63 394.39L515.62 248.27" stroke="#132e65" stroke-width="1.5"></path><path d="M663.63 394.39L811.17 220.54" stroke="#132e65" stroke-width="1.5"></path><path d="M814.79 102.89L814.79 102.89" stroke="#132e65" stroke-width="1.5"></path><path d="M814.79 102.89L811.17 220.54" stroke="#132e65" stroke-width="1.5"></path><path d="M814.79 102.89L965.74 111.62" stroke="#132e65" stroke-width="1.5"></path><path d="M814.79 102.89L669.27 239.71" stroke="#132e65" stroke-width="1.5"></path><path d="M814.79 102.89L1001.6 -88.93" stroke="#132e65" stroke-width="1.5"></path><path d="M814.79 102.89L848.08 382.31" stroke="#132e65" stroke-width="1.5"></path><path d="M814.79 102.89L949.14 355.68" stroke="#132e65" stroke-width="1.5"></path><path d="M811.17 220.54L811.17 220.54" stroke="#132e65" stroke-width="1.5"></path><path d="M848.08 382.31L848.08 382.31" stroke="#132e65" stroke-width="1.5"></path><path d="M848.08 382.31L949.14 355.68" stroke="#132e65" stroke-width="1.5"></path><path d="M848.08 382.31L811.17 220.54" stroke="#132e65" stroke-width="1.5"></path><path d="M1001.6 -88.93L1001.6 -88.93" stroke="#132e65" stroke-width="1.5"></path><path d="M1001.6 -88.93L1159.99 -72.68" stroke="#132e65" stroke-width="1.5"></path><path d="M1001.6 -88.93L1120.65 54.87" stroke="#132e65" stroke-width="1.5"></path><path d="M1001.6 -88.93L965.74 111.62" stroke="#132e65" stroke-width="1.5"></path><path d="M965.74 111.62L965.74 111.62" stroke="#132e65" stroke-width="1.5"></path><path d="M965.74 111.62L1120.65 54.87" stroke="#132e65" stroke-width="1.5"></path><path d="M965.74 111.62L811.17 220.54" stroke="#132e65" stroke-width="1.5"></path><path d="M949.14 355.68L949.14 355.68" stroke="#132e65" stroke-width="1.5"></path><path d="M949.14 355.68L811.17 220.54" stroke="#132e65" stroke-width="1.5"></path><path d="M1159.99 -72.68L1159.99 -72.68" stroke="#132e65" stroke-width="1.5"></path><path d="M1159.99 -72.68L1265.42 -60.71" stroke="#132e65" stroke-width="1.5"></path><path d="M1159.99 -72.68L1120.65 54.87" stroke="#132e65" stroke-width="1.5"></path><path d="M1120.65 54.87L1120.65 54.87" stroke="#132e65" stroke-width="1.5"></path><path d="M1120.65 54.87L1265.42 -60.71" stroke="#132e65" stroke-width="1.5"></path><path d="M1151.07 245.64L1151.07 245.64" stroke="#132e65" stroke-width="1.5"></path><path d="M1151.07 245.64L1277.9 249.12" stroke="#132e65" stroke-width="1.5"></path><path d="M1151.07 245.64L1143.16 399.21" stroke="#132e65" stroke-width="1.5"></path><path d="M1151.07 245.64L1120.65 54.87" stroke="#132e65" stroke-width="1.5"></path><path d="M1151.07 245.64L1307.89 89.91" stroke="#132e65" stroke-width="1.5"></path><path d="M1143.16 399.21L1143.16 399.21" stroke="#132e65" stroke-width="1.5"></path><path d="M1143.16 399.21L949.14 355.68" stroke="#132e65" stroke-width="1.5"></path><path d="M1265.42 -60.71L1265.42 -60.71" stroke="#132e65" stroke-width="1.5"></path><path d="M1265.42 -60.71L1307.89 89.91" stroke="#132e65" stroke-width="1.5"></path><path d="M1265.42 -60.71L1436.03 -74.84" stroke="#132e65" stroke-width="1.5"></path><path d="M1307.89 89.91L1307.89 89.91" stroke="#132e65" stroke-width="1.5"></path><path d="M1307.89 89.91L1395.18 74.38" stroke="#132e65" stroke-width="1.5"></path><path d="M1277.9 249.12L1277.9 249.12" stroke="#132e65" stroke-width="1.5"></path><path d="M1277.9 249.12L1402.53 219.92" stroke="#132e65" stroke-width="1.5"></path><path d="M1277.9 249.12L1307.89 89.91" stroke="#132e65" stroke-width="1.5"></path><path d="M1277.9 249.12L1448.54 348.66" stroke="#132e65" stroke-width="1.5"></path><path d="M1277.9 249.12L1143.16 399.21" stroke="#132e65" stroke-width="1.5"></path><path d="M1436.03 -74.84L1436.03 -74.84" stroke="#132e65" stroke-width="1.5"></path><path d="M1436.03 -74.84L1582.92 -94.27" stroke="#132e65" stroke-width="1.5"></path><path d="M1436.03 -74.84L1395.18 74.38" stroke="#132e65" stroke-width="1.5"></path><path d="M1395.18 74.38L1395.18 74.38" stroke="#132e65" stroke-width="1.5"></path><path d="M1395.18 74.38L1402.53 219.92" stroke="#132e65" stroke-width="1.5"></path><path d="M1402.53 219.92L1402.53 219.92" stroke="#132e65" stroke-width="1.5"></path><path d="M1402.53 219.92L1448.54 348.66" stroke="#132e65" stroke-width="1.5"></path><path d="M1402.53 219.92L1307.89 89.91" stroke="#132e65" stroke-width="1.5"></path><path d="M1402.53 219.92L1593.8 252.69" stroke="#132e65" stroke-width="1.5"></path><path d="M1402.53 219.92L1591.21 359.23" stroke="#132e65" stroke-width="1.5"></path><path d="M1448.54 348.66L1448.54 348.66" stroke="#132e65" stroke-width="1.5"></path><path d="M1448.54 348.66L1591.21 359.23" stroke="#132e65" stroke-width="1.5"></path><path d="M1448.54 348.66L1593.8 252.69" stroke="#132e65" stroke-width="1.5"></path><path d="M1448.54 348.66L1395.18 74.38" stroke="#132e65" stroke-width="1.5"></path><path d="M1448.54 348.66L1307.89 89.91" stroke="#132e65" stroke-width="1.5"></path><path d="M1582.92 -94.27L1582.92 -94.27" stroke="#132e65" stroke-width="1.5"></path><path d="M1582.92 -94.27L1585.85 43.16" stroke="#132e65" stroke-width="1.5"></path><path d="M1585.85 43.16L1585.85 43.16" stroke="#132e65" stroke-width="1.5"></path><path d="M1585.85 43.16L1436.03 -74.84" stroke="#132e65" stroke-width="1.5"></path><path d="M1585.85 43.16L1395.18 74.38" stroke="#132e65" stroke-width="1.5"></path><path d="M1585.85 43.16L1593.8 252.69" stroke="#132e65" stroke-width="1.5"></path><path d="M1585.85 43.16L1402.53 219.92" stroke="#132e65" stroke-width="1.5"></path><path d="M1585.85 43.16L1307.89 89.91" stroke="#132e65" stroke-width="1.5"></path><path d="M1593.8 252.69L1593.8 252.69" stroke="#132e65" stroke-width="1.5"></path><path d="M1593.8 252.69L1591.21 359.23" stroke="#132e65" stroke-width="1.5"></path><path d="M1591.21 359.23L1591.21 359.23" stroke="#132e65" stroke-width="1.5"></path><circle r="5" cx="-53.44" cy="190.02" fill="#132e65"></circle><circle r="5" cx="-106.79" cy="367.38" fill="#132e65"></circle><circle r="5" cx="101.99" cy="207.79" fill="#132e65"></circle><circle r="5" cx="98.11" cy="388.73" fill="#132e65"></circle><circle r="5" cx="209.85" cy="383.91" fill="#132e65"></circle><circle r="5" cx="386.87" cy="251.61" fill="#132e65"></circle><circle r="5" cx="401.82" cy="351.62" fill="#132e65"></circle><circle r="5" cx="515.62" cy="248.27" fill="#132e65"></circle><circle r="5" cx="489.55" cy="404.77" fill="#132e65"></circle><circle r="5" cx="669.27" cy="239.71" fill="#132e65"></circle><circle r="5" cx="663.63" cy="394.39" fill="#132e65"></circle><circle r="5" cx="814.79" cy="102.89" fill="#132e65"></circle><circle r="5" cx="811.17" cy="220.54" fill="#132e65"></circle><circle r="5" cx="848.08" cy="382.31" fill="#132e65"></circle><circle r="5" cx="1001.6" cy="-88.93" fill="#132e65"></circle><circle r="5" cx="965.74" cy="111.62" fill="#132e65"></circle><circle r="5" cx="949.14" cy="355.68" fill="#132e65"></circle><circle r="5" cx="1159.99" cy="-72.68" fill="#132e65"></circle><circle r="5" cx="1120.65" cy="54.87" fill="#132e65"></circle><circle r="5" cx="1151.07" cy="245.64" fill="#132e65"></circle><circle r="5" cx="1143.16" cy="399.21" fill="#132e65"></circle><circle r="5" cx="1265.42" cy="-60.71" fill="#132e65"></circle><circle r="5" cx="1307.89" cy="89.91" fill="#132e65"></circle><circle r="5" cx="1277.9" cy="249.12" fill="#132e65"></circle><circle r="5" cx="1436.03" cy="-74.84" fill="#132e65"></circle><circle r="5" cx="1395.18" cy="74.38" fill="#132e65"></circle><circle r="5" cx="1402.53" cy="219.92" fill="#132e65"></circle><circle r="5" cx="1448.54" cy="348.66" fill="#132e65"></circle><circle r="5" cx="1582.92" cy="-94.27" fill="#132e65"></circle><circle r="5" cx="1585.85" cy="43.16" fill="#132e65"></circle><circle r="5" cx="1593.8" cy="252.69" fill="#132e65"></circle><circle r="5" cx="1591.21" cy="359.23" fill="#132e65"></circle><path d="M1139.87 70.03L1139.87 70.03" stroke="hsl(228.5, 77.2%, 51.5%)" stroke-width="1.5"></path><path d="M1139.87 70.03L1266.05 100.38" stroke="hsl(228.5, 77.2%, 51.5%)" stroke-width="1.5"></path><path d="M1139.87 70.03L1094.77 245.37" stroke="hsl(228.5, 77.2%, 51.5%)" stroke-width="1.5"></path><path d="M1409.64 97.35L1409.64 97.35" stroke="hsl(228.5, 77.2%, 51.5%)" stroke-width="1.5"></path><path d="M1409.64 97.35L1399.59 214.01" stroke="hsl(228.5, 77.2%, 51.5%)" stroke-width="1.5"></path><path d="M1409.64 97.35L1266.05 100.38" stroke="hsl(228.5, 77.2%, 51.5%)" stroke-width="1.5"></path><path d="M1409.64 97.35L1566.67 62.06" stroke="hsl(228.5, 77.2%, 51.5%)" stroke-width="1.5"></path><path d="M-110.69 244.8L-110.69 244.8" stroke="hsl(228.5, 77.2%, 51.5%)" stroke-width="1.5"></path><path d="M-110.69 244.8L-71.49 387.96" stroke="hsl(228.5, 77.2%, 51.5%)" stroke-width="1.5"></path><path d="M-110.69 244.8L72.69 368.3" stroke="hsl(228.5, 77.2%, 51.5%)" stroke-width="1.5"></path><path d="M-110.69 244.8L191.33 238.43" stroke="hsl(228.5, 77.2%, 51.5%)" stroke-width="1.5"></path><path d="M-71.49 387.96L-71.49 387.96" stroke="hsl(228.5, 77.2%, 51.5%)" stroke-width="1.5"></path><path d="M-71.49 387.96L72.69 368.3" stroke="hsl(228.5, 77.2%, 51.5%)" stroke-width="1.5"></path><path d="M72.69 368.3L72.69 368.3" stroke="hsl(228.5, 77.2%, 51.5%)" stroke-width="1.5"></path><path d="M72.69 368.3L191.33 238.43" stroke="hsl(228.5, 77.2%, 51.5%)" stroke-width="1.5"></path><path d="M72.69 368.3L491.08 260.28" stroke="hsl(228.5, 77.2%, 51.5%)" stroke-width="1.5"></path><path d="M72.69 368.3L541.41 407.25" stroke="hsl(228.5, 77.2%, 51.5%)" stroke-width="1.5"></path><path d="M191.33 238.43L191.33 238.43" stroke="hsl(228.5, 77.2%, 51.5%)" stroke-width="1.5"></path><path d="M191.33 238.43L491.08 260.28" stroke="hsl(228.5, 77.2%, 51.5%)" stroke-width="1.5"></path><path d="M491.08 260.28L491.08 260.28" stroke="hsl(228.5, 77.2%, 51.5%)" stroke-width="1.5"></path><path d="M491.08 260.28L541.41 407.25" stroke="hsl(228.5, 77.2%, 51.5%)" stroke-width="1.5"></path><path d="M491.08 260.28L647.2 362.48" stroke="hsl(228.5, 77.2%, 51.5%)" stroke-width="1.5"></path><path d="M541.41 407.25L541.41 407.25" stroke="hsl(228.5, 77.2%, 51.5%)" stroke-width="1.5"></path><path d="M541.41 407.25L647.2 362.48" stroke="hsl(228.5, 77.2%, 51.5%)" stroke-width="1.5"></path><path d="M706.57 230.75L706.57 230.75" stroke="hsl(228.5, 77.2%, 51.5%)" stroke-width="1.5"></path><path d="M706.57 230.75L803.82 248.82" stroke="hsl(228.5, 77.2%, 51.5%)" stroke-width="1.5"></path><path d="M706.57 230.75L647.2 362.48" stroke="hsl(228.5, 77.2%, 51.5%)" stroke-width="1.5"></path><path d="M706.57 230.75L833.76 369.87" stroke="hsl(228.5, 77.2%, 51.5%)" stroke-width="1.5"></path><path d="M647.2 362.48L647.2 362.48" stroke="hsl(228.5, 77.2%, 51.5%)" stroke-width="1.5"></path><path d="M803.82 248.82L803.82 248.82" stroke="hsl(228.5, 77.2%, 51.5%)" stroke-width="1.5"></path><path d="M803.82 248.82L833.76 369.87" stroke="hsl(228.5, 77.2%, 51.5%)" stroke-width="1.5"></path><path d="M803.82 248.82L962.81 194.89" stroke="hsl(228.5, 77.2%, 51.5%)" stroke-width="1.5"></path><path d="M833.76 369.87L833.76 369.87" stroke="hsl(228.5, 77.2%, 51.5%)" stroke-width="1.5"></path><path d="M833.76 369.87L982.45 395.88" stroke="hsl(228.5, 77.2%, 51.5%)" stroke-width="1.5"></path><path d="M833.76 369.87L647.2 362.48" stroke="hsl(228.5, 77.2%, 51.5%)" stroke-width="1.5"></path><path d="M962.81 194.89L962.81 194.89" stroke="hsl(228.5, 77.2%, 51.5%)" stroke-width="1.5"></path><path d="M962.81 194.89L1094.77 245.37" stroke="hsl(228.5, 77.2%, 51.5%)" stroke-width="1.5"></path><path d="M962.81 194.89L982.45 395.88" stroke="hsl(228.5, 77.2%, 51.5%)" stroke-width="1.5"></path><path d="M962.81 194.89L1139.87 70.03" stroke="hsl(228.5, 77.2%, 51.5%)" stroke-width="1.5"></path><path d="M962.81 194.89L833.76 369.87" stroke="hsl(228.5, 77.2%, 51.5%)" stroke-width="1.5"></path><path d="M962.81 194.89L706.57 230.75" stroke="hsl(228.5, 77.2%, 51.5%)" stroke-width="1.5"></path><path d="M982.45 395.88L982.45 395.88" stroke="hsl(228.5, 77.2%, 51.5%)" stroke-width="1.5"></path><path d="M982.45 395.88L1154.7 404.97" stroke="hsl(228.5, 77.2%, 51.5%)" stroke-width="1.5"></path><path d="M1094.77 245.37L1094.77 245.37" stroke="hsl(228.5, 77.2%, 51.5%)" stroke-width="1.5"></path><path d="M1094.77 245.37L1154.7 404.97" stroke="hsl(228.5, 77.2%, 51.5%)" stroke-width="1.5"></path><path d="M1094.77 245.37L1272.09 218.46" stroke="hsl(228.5, 77.2%, 51.5%)" stroke-width="1.5"></path><path d="M1094.77 245.37L982.45 395.88" stroke="hsl(228.5, 77.2%, 51.5%)" stroke-width="1.5"></path><path d="M1094.77 245.37L1282.14 339.56" stroke="hsl(228.5, 77.2%, 51.5%)" stroke-width="1.5"></path><path d="M1154.7 404.97L1154.7 404.97" stroke="hsl(228.5, 77.2%, 51.5%)" stroke-width="1.5"></path><path d="M1154.7 404.97L1282.14 339.56" stroke="hsl(228.5, 77.2%, 51.5%)" stroke-width="1.5"></path><path d="M1154.7 404.97L1272.09 218.46" stroke="hsl(228.5, 77.2%, 51.5%)" stroke-width="1.5"></path><path d="M1154.7 404.97L1428.71 370.22" stroke="hsl(228.5, 77.2%, 51.5%)" stroke-width="1.5"></path><path d="M1304.67 -89.51L1304.67 -89.51" stroke="hsl(228.5, 77.2%, 51.5%)" stroke-width="1.5"></path><path d="M1304.67 -89.51L1266.05 100.38" stroke="hsl(228.5, 77.2%, 51.5%)" stroke-width="1.5"></path><path d="M1304.67 -89.51L1409.64 97.35" stroke="hsl(228.5, 77.2%, 51.5%)" stroke-width="1.5"></path><path d="M1304.67 -89.51L1139.87 70.03" stroke="hsl(228.5, 77.2%, 51.5%)" stroke-width="1.5"></path><path d="M1266.05 100.38L1266.05 100.38" stroke="hsl(228.5, 77.2%, 51.5%)" stroke-width="1.5"></path><path d="M1266.05 100.38L1272.09 218.46" stroke="hsl(228.5, 77.2%, 51.5%)" stroke-width="1.5"></path><path d="M1272.09 218.46L1272.09 218.46" stroke="hsl(228.5, 77.2%, 51.5%)" stroke-width="1.5"></path><path d="M1272.09 218.46L1282.14 339.56" stroke="hsl(228.5, 77.2%, 51.5%)" stroke-width="1.5"></path><path d="M1282.14 339.56L1282.14 339.56" stroke="hsl(228.5, 77.2%, 51.5%)" stroke-width="1.5"></path><path d="M1399.59 214.01L1399.59 214.01" stroke="hsl(228.5, 77.2%, 51.5%)" stroke-width="1.5"></path><path d="M1399.59 214.01L1272.09 218.46" stroke="hsl(228.5, 77.2%, 51.5%)" stroke-width="1.5"></path><path d="M1399.59 214.01L1428.71 370.22" stroke="hsl(228.5, 77.2%, 51.5%)" stroke-width="1.5"></path><path d="M1428.71 370.22L1428.71 370.22" stroke="hsl(228.5, 77.2%, 51.5%)" stroke-width="1.5"></path><path d="M1428.71 370.22L1282.14 339.56" stroke="hsl(228.5, 77.2%, 51.5%)" stroke-width="1.5"></path><path d="M1428.71 370.22L1272.09 218.46" stroke="hsl(228.5, 77.2%, 51.5%)" stroke-width="1.5"></path><path d="M1428.71 370.22L1611.8 222.99" stroke="hsl(228.5, 77.2%, 51.5%)" stroke-width="1.5"></path><path d="M1556.59 -39.82L1556.59 -39.82" stroke="hsl(228.5, 77.2%, 51.5%)" stroke-width="1.5"></path><path d="M1556.59 -39.82L1566.67 62.06" stroke="hsl(228.5, 77.2%, 51.5%)" stroke-width="1.5"></path><path d="M1556.59 -39.82L1409.64 97.35" stroke="hsl(228.5, 77.2%, 51.5%)" stroke-width="1.5"></path><path d="M1556.59 -39.82L1304.67 -89.51" stroke="hsl(228.5, 77.2%, 51.5%)" stroke-width="1.5"></path><path d="M1566.67 62.06L1566.67 62.06" stroke="hsl(228.5, 77.2%, 51.5%)" stroke-width="1.5"></path><path d="M1611.8 222.99L1611.8 222.99" stroke="hsl(228.5, 77.2%, 51.5%)" stroke-width="1.5"></path><path d="M1611.8 222.99L1566.67 62.06" stroke="hsl(228.5, 77.2%, 51.5%)" stroke-width="1.5"></path><path d="M1611.8 222.99L1399.59 214.01" stroke="hsl(228.5, 77.2%, 51.5%)" stroke-width="1.5"></path><path d="M1611.8 222.99L1409.64 97.35" stroke="hsl(228.5, 77.2%, 51.5%)" stroke-width="1.5"></path><path d="M1611.8 222.99L1556.59 -39.82" stroke="hsl(228.5, 77.2%, 51.5%)" stroke-width="1.5"></path><path d="M1611.8 222.99L1272.09 218.46" stroke="hsl(228.5, 77.2%, 51.5%)" stroke-width="1.5"></path><circle r="25" cx="1139.87" cy="70.03" fill="url(#SvgjsRadialGradient1064)"></circle><circle r="25" cx="1409.64" cy="97.35" fill="url(#SvgjsRadialGradient1064)"></circle><circle r="5" cx="-110.69" cy="244.8" fill="#8b9ad9"></circle><circle r="5" cx="-71.49" cy="387.96" fill="#8b9ad9"></circle><circle r="5" cx="72.69" cy="368.3" fill="#8b9ad9"></circle><circle r="5" cx="191.33" cy="238.43" fill="#8b9ad9"></circle><circle r="5" cx="491.08" cy="260.28" fill="#8b9ad9"></circle><circle r="5" cx="541.41" cy="407.25" fill="#8b9ad9"></circle><circle r="5" cx="706.57" cy="230.75" fill="#8b9ad9"></circle><circle r="5" cx="647.2" cy="362.48" fill="#8b9ad9"></circle><circle r="5" cx="803.82" cy="248.82" fill="#8b9ad9"></circle><circle r="5" cx="833.76" cy="369.87" fill="#8b9ad9"></circle><circle r="5" cx="962.81" cy="194.89" fill="#8b9ad9"></circle><circle r="5" cx="982.45" cy="395.88" fill="#8b9ad9"></circle><circle r="5" cx="1094.77" cy="245.37" fill="#8b9ad9"></circle><circle r="5" cx="1154.7" cy="404.97" fill="#8b9ad9"></circle><circle r="5" cx="1304.67" cy="-89.51" fill="#8b9ad9"></circle><circle r="5" cx="1266.05" cy="100.38" fill="#8b9ad9"></circle><circle r="5" cx="1272.09" cy="218.46" fill="#8b9ad9"></circle><circle r="5" cx="1282.14" cy="339.56" fill="#8b9ad9"></circle><circle r="5" cx="1399.59" cy="214.01" fill="#8b9ad9"></circle><circle r="5" cx="1428.71" cy="370.22" fill="#8b9ad9"></circle><circle r="5" cx="1556.59" cy="-39.82" fill="#8b9ad9"></circle><circle r="5" cx="1566.67" cy="62.06" fill="#8b9ad9"></circle><circle r="5" cx="1611.8" cy="222.99" fill="#8b9ad9"></circle></g><defs><mask id="SvgjsMask1063"><rect width="1440" height="300" fill="#ffffff"></rect></mask><radialGradient id="SvgjsRadialGradient1064"><stop stop-color="#ffffff" offset="0.1"></stop><stop stop-color="#1735b3" offset="0.2"></stop><stop stop-color="rgba(23, 53, 179, 0)" offset="1"></stop></radialGradient></defs></svg>