<svg xmlns="http://www.w3.org/2000/svg" version="1.1" xmlns:xlink="http://www.w3.org/1999/xlink" xmlns:svgjs="http://svgjs.com/svgjs" width="1440" height="300" preserveAspectRatio="none" viewBox="0 0 1440 300"><g mask="url(&quot;#SvgjsMask1108&quot;)" fill="none"><rect width="1440" height="300" x="0" y="0" fill="url(#SvgjsLinearGradient1109)"></rect><path d="M1488 300L0 300 L0 176.53Q45.67 150.2, 72 195.87Q109.22 113.09, 192 150.3Q237.1 123.4, 264 168.5Q307.14 139.64, 336 182.78Q358.63 133.41, 408 156.03Q476.29 104.32, 528 172.61Q578.67 151.29, 600 201.96Q612.13 142.09, 672 154.23Q746.88 109.1, 792 183.98Q858.66 130.64, 912 197.31Q935.24 148.55, 984 171.79Q1010.11 125.9, 1056 152.01Q1138.99 115, 1176 198Q1200.21 150.22, 1248 174.43Q1299.73 106.17, 1368 157.9Q1445.68 115.59, 1488 193.27z" fill="#182f5d"></path><path d="M1560 300L0 300 L0 223.72Q51.2 154.92, 120 206.11Q150.66 164.78, 192 195.44Q273.07 156.51, 312 237.59Q337.19 190.78, 384 215.96Q435.24 147.2, 504 198.45Q560.26 182.71, 576 238.97Q601.34 192.31, 648 217.65Q702.77 152.42, 768 207.19Q842.3 161.5, 888 235.8Q940.58 168.38, 1008 220.97Q1037.74 178.71, 1080 208.45Q1152.82 161.27, 1200 234.09Q1238.3 152.39, 1320 190.69Q1394.62 145.31, 1440 219.92Q1508.97 168.89, 1560 237.87z" fill="#25467d"></path><path d="M1560 300L0 300 L0 271.67Q54.38 206.06, 120 260.44Q140.3 208.74, 192 229.03Q235.16 200.19, 264 243.34Q310.25 217.58, 336 263.83Q377.25 233.08, 408 274.33Q457.3 203.63, 528 252.92Q581.89 186.81, 648 240.71Q701.4 174.12, 768 227.52Q821.37 208.89, 840 262.26Q906.33 208.59, 960 274.92Q979.54 222.46, 1032 241.99Q1060.56 198.55, 1104 227.11Q1157.82 208.93, 1176 262.74Q1219.26 234, 1248 277.26Q1269.12 226.38, 1320 247.5Q1373.13 180.63, 1440 233.77Q1520.44 194.21, 1560 274.65z" fill="#356cb1"></path><path d="M1512 300L0 300 L0 309.69Q16.79 254.48, 72 271.27Q139.3 218.56, 192 285.86Q234.58 256.44, 264 299.03Q285.7 248.73, 336 270.42Q417.05 231.47, 456 312.51Q480.51 265.02, 528 289.54Q558.92 248.46, 600 279.38Q646.59 253.97, 672 300.55Q714.78 271.33, 744 314.11Q784.34 234.44, 864 274.78Q894.87 233.65, 936 264.52Q1010.78 219.3, 1056 294.08Q1084.89 250.98, 1128 279.87Q1205.49 237.36, 1248 314.85Q1271.96 266.81, 1320 290.77Q1361.89 260.66, 1392 302.55Q1440.6 231.14, 1512 279.74z" fill="rgba(0, 0, 0, 1)"></path></g><defs><mask id="SvgjsMask1108"><rect width="1440" height="300" fill="#ffffff"></rect></mask><linearGradient x1="19.79%" y1="-95%" x2="80.21%" y2="195%" gradientUnits="userSpaceOnUse" id="SvgjsLinearGradient1109"><stop stop-color="#0e2a47" offset="0"></stop><stop stop-color="#00459e" offset="1"></stop></linearGradient></defs></svg>