<svg xmlns="http://www.w3.org/2000/svg" version="1.1" xmlns:xlink="http://www.w3.org/1999/xlink" xmlns:svgjs="http://svgjs.com/svgjs" width="1440" height="300" preserveAspectRatio="none" viewBox="0 0 1440 300"><g mask="url(&quot;#SvgjsMask1537&quot;)" fill="none"><path d="M40 300L340 0L566.5 0L266.5 300z" fill="url(#SvgjsLinearGradient1538)"></path><path d="M241.60000000000002 300L541.6 0L646.6 0L346.6 300z" fill="url(#SvgjsLinearGradient1538)"></path><path d="M486.20000000000005 300L786.2 0L1029.2 0L729.2 300z" fill="url(#SvgjsLinearGradient1538)"></path><path d="M758.8000000000001 300L1058.8000000000002 0L1372.3000000000002 0L1072.3000000000002 300z" fill="url(#SvgjsLinearGradient1538)"></path><path d="M1406 300L1106 0L932 0L1232 300z" fill="url(#SvgjsLinearGradient1539)"></path><path d="M1192.4 300L892.4000000000001 0L718.4000000000001 0L1018.4000000000001 300z" fill="url(#SvgjsLinearGradient1539)"></path><path d="M935.8 300L635.8 0L514.3 0L814.3 300z" fill="url(#SvgjsLinearGradient1539)"></path><path d="M681.1999999999999 300L381.19999999999993 0L217.69999999999993 0L517.6999999999999 300z" fill="url(#SvgjsLinearGradient1539)"></path><path d="M1147.381843594152 300L1440 7.381843594152031L1440 300z" fill="url(#SvgjsLinearGradient1538)"></path><path d="M0 300L292.61815640584797 300L 0 7.381843594152031z" fill="url(#SvgjsLinearGradient1539)"></path></g><defs><mask id="SvgjsMask1537"><rect width="1440" height="300" fill="#ffffff"></rect></mask><linearGradient x1="0%" y1="100%" x2="100%" y2="0%" id="SvgjsLinearGradient1538"><stop stop-color="rgba(204, 12, 12, 0.48)" offset="0"></stop><stop stop-opacity="0" stop-color="rgba(204, 12, 12, 0.48)" offset="0.66"></stop></linearGradient><linearGradient x1="100%" y1="100%" x2="0%" y2="0%" id="SvgjsLinearGradient1539"><stop stop-color="rgba(204, 12, 12, 0.48)" offset="0"></stop><stop stop-opacity="0" stop-color="rgba(204, 12, 12, 0.48)" offset="0.66"></stop></linearGradient></defs></svg>