<svg xmlns="http://www.w3.org/2000/svg" version="1.1" xmlns:xlink="http://www.w3.org/1999/xlink" xmlns:svgjs="http://svgjs.com/svgjs" width="1240" height="300" preserveAspectRatio="none" viewBox="0 0 1240 300"><g mask="url(&quot;#SvgjsMask1015&quot;)" fill="none"><path d="M3 300L303 0L472.5 0L172.5 300z" fill="url(#SvgjsLinearGradient1016)"></path><path d="M212.60000000000002 300L512.6 0L601.1 0L301.1 300z" fill="url(#SvgjsLinearGradient1016)"></path><path d="M412.20000000000005 300L712.2 0L986.7 0L686.7 300z" fill="url(#SvgjsLinearGradient1016)"></path><path d="M629.8000000000001 300L929.8000000000001 0L1106.8000000000002 0L806.8000000000001 300z" fill="url(#SvgjsLinearGradient1016)"></path><path d="M1224 300L924 0L816 0L1116 300z" fill="url(#SvgjsLinearGradient1017)"></path><path d="M1032.4 300L732.4000000000001 0L541.9000000000001 0L841.9000000000001 300z" fill="url(#SvgjsLinearGradient1017)"></path><path d="M816.8 300L516.8 0L320.29999999999995 0L620.3 300z" fill="url(#SvgjsLinearGradient1017)"></path><path d="M585.1999999999999 300L285.19999999999993 0L118.69999999999993 0L418.69999999999993 300z" fill="url(#SvgjsLinearGradient1017)"></path><path d="M1071.6669652676098 300L1240 131.66696526760987L1240 300z" fill="url(#SvgjsLinearGradient1016)"></path><path d="M0 300L168.33303473239013 300L 0 131.66696526760987z" fill="url(#SvgjsLinearGradient1017)"></path></g><defs><mask id="SvgjsMask1015"><rect width="1240" height="300" fill="#ffffff"></rect></mask><linearGradient x1="0%" y1="100%" x2="100%" y2="0%" id="SvgjsLinearGradient1016"><stop stop-color="rgba(4, 17, 100, 0.48)" offset="0"></stop><stop stop-opacity="0" stop-color="rgba(4, 17, 100, 0.48)" offset="0.66"></stop></linearGradient><linearGradient x1="100%" y1="100%" x2="0%" y2="0%" id="SvgjsLinearGradient1017"><stop stop-color="rgba(4, 17, 100, 0.48)" offset="0"></stop><stop stop-opacity="0" stop-color="rgba(4, 17, 100, 0.48)" offset="0.66"></stop></linearGradient></defs></svg>