<svg xmlns="http://www.w3.org/2000/svg" version="1.1" xmlns:xlink="http://www.w3.org/1999/xlink" xmlns:svgjs="http://svgjs.com/svgjs" width="1240" height="300" preserveAspectRatio="none" viewBox="0 0 1240 300"><g mask="url(&quot;#SvgjsMask1030&quot;)" fill="none"><path d="M15 300L315 0L577.5 0L277.5 300z" fill="url(#SvgjsLinearGradient1031)"></path><path d="M224.60000000000002 300L524.6 0L634.1 0L334.1 300z" fill="url(#SvgjsLinearGradient1031)"></path><path d="M413.20000000000005 300L713.2 0L1016.2 0L716.2 300z" fill="url(#SvgjsLinearGradient1031)"></path><path d="M622.8000000000001 300L922.8000000000001 0L1224.3000000000002 0L924.3000000000001 300z" fill="url(#SvgjsLinearGradient1031)"></path><path d="M1221 300L921 0L877.5 0L1177.5 300z" fill="url(#SvgjsLinearGradient1032)"></path><path d="M1019.4 300L719.4 0L581.4 0L881.4 300z" fill="url(#SvgjsLinearGradient1032)"></path><path d="M806.8 300L506.79999999999995 0L371.79999999999995 0L671.8 300z" fill="url(#SvgjsLinearGradient1032)"></path><path d="M609.1999999999999 300L309.19999999999993 0L217.69999999999993 0L517.6999999999999 300z" fill="url(#SvgjsLinearGradient1032)"></path><path d="M991.076788179448 300L1240 51.07678817944807L1240 300z" fill="url(#SvgjsLinearGradient1031)"></path><path d="M0 300L248.92321182055193 300L 0 51.07678817944807z" fill="url(#SvgjsLinearGradient1032)"></path></g><defs><mask id="SvgjsMask1030"><rect width="1240" height="300" fill="#ffffff"></rect></mask><linearGradient x1="0%" y1="100%" x2="100%" y2="0%" id="SvgjsLinearGradient1031"><stop stop-color="rgba(5, 8, 104, 0.48)" offset="0"></stop><stop stop-opacity="0" stop-color="rgba(5, 8, 104, 0.48)" offset="0.66"></stop></linearGradient><linearGradient x1="100%" y1="100%" x2="0%" y2="0%" id="SvgjsLinearGradient1032"><stop stop-color="rgba(5, 8, 104, 0.48)" offset="0"></stop><stop stop-opacity="0" stop-color="rgba(5, 8, 104, 0.48)" offset="0.66"></stop></linearGradient></defs></svg>