<svg xmlns="http://www.w3.org/2000/svg" version="1.1" xmlns:xlink="http://www.w3.org/1999/xlink" xmlns:svgjs="http://svgjs.com/svgjs" width="1440" height="360" preserveAspectRatio="none" viewBox="0 0 1440 360"><g mask="url(&quot;#SvgjsMask1112&quot;)" fill="none"><rect width="1440" height="360" x="0" y="0" fill="url(#SvgjsLinearGradient1113)"></rect><path d="M0 0L288.84 0L0 132.87z" fill="rgba(255, 255, 255, .1)"></path><path d="M0 132.87L288.84 0L386.96999999999997 0L0 154.27z" fill="rgba(255, 255, 255, .075)"></path><path d="M0 154.27L386.96999999999997 0L428.61999999999995 0L0 234.52z" fill="rgba(255, 255, 255, .05)"></path><path d="M0 234.52L428.61999999999995 0L977.4099999999999 0L0 317.34000000000003z" fill="rgba(255, 255, 255, .025)"></path><path d="M1440 360L1190.75 360L1440 204.34z" fill="rgba(0, 0, 0, .1)"></path><path d="M1440 204.34L1190.75 360L571.79 360L1440 95.14z" fill="rgba(0, 0, 0, .075)"></path><path d="M1440 95.13999999999999L571.79 360L324.26 360L1440 79.29999999999998z" fill="rgba(0, 0, 0, .05)"></path><path d="M1440 79.30000000000001L324.26 360L186.48999999999998 360L1440 67.56000000000002z" fill="rgba(0, 0, 0, .025)"></path></g><defs><mask id="SvgjsMask1112"><rect width="1440" height="360" fill="#ffffff"></rect></mask><linearGradient x1="18.75%" y1="-75%" x2="81.25%" y2="175%" gradientUnits="userSpaceOnUse" id="SvgjsLinearGradient1113"><stop stop-color="#0e2a47" offset="0"></stop><stop stop-color="rgba(3, 24, 52, 1)" offset="1"></stop></linearGradient></defs></svg>