<svg xmlns="http://www.w3.org/2000/svg" version="1.1" xmlns:xlink="http://www.w3.org/1999/xlink" xmlns:svgjs="http://svgjs.com/svgjs" width="1500" height="360" preserveAspectRatio="none" viewBox="0 0 1500 360"><g mask="url(&quot;#SvgjsMask1174&quot;)" fill="none"><path d="M1500 0L1491.45 0L1500 78.83z" fill="rgba(255, 255, 255, .1)"></path><path d="M1491.45 0L1500 78.83L1500 213.68L868.21 0z" fill="rgba(255, 255, 255, .075)"></path><path d="M868.21 0L1500 213.68L1500 249.74L717.7 0z" fill="rgba(255, 255, 255, .05)"></path><path d="M717.7 0L1500 249.74L1500 263.34000000000003L534.21 0z" fill="rgba(255, 255, 255, .025)"></path><path d="M0 360L709.93 360L0 346.74z" fill="rgba(0, 0, 0, .1)"></path><path d="M0 346.74L709.93 360L1022.93 360L0 165.38z" fill="rgba(0, 0, 0, .075)"></path><path d="M0 165.38L1022.93 360L1297.17 360L0 135.01999999999998z" fill="rgba(0, 0, 0, .05)"></path><path d="M0 135.01999999999998L1297.17 360L1324.8200000000002 360L0 106.06999999999998z" fill="rgba(0, 0, 0, .025)"></path></g><defs><mask id="SvgjsMask1174"><rect width="1500" height="360" fill="#ffffff"></rect></mask></defs></svg>