<svg xmlns="http://www.w3.org/2000/svg" version="1.1" xmlns:xlink="http://www.w3.org/1999/xlink" xmlns:svgjs="http://svgjs.com/svgjs" width="1440" height="360" preserveAspectRatio="none" viewBox="0 0 1440 360"><g mask="url(&quot;#SvgjsMask1025&quot;)" fill="none"><rect width="1440" height="360" x="0" y="0" fill="rgba(4, 4, 4, 0.88)"></rect><path d="M0 0L229.2 0L0 162.56z" fill="rgba(255, 255, 255, .1)"></path><path d="M0 162.56L229.2 0L862.02 0L0 265.78z" fill="rgba(255, 255, 255, .075)"></path><path d="M0 265.78L862.02 0L1080.29 0L0 312.66999999999996z" fill="rgba(255, 255, 255, .05)"></path><path d="M0 312.66999999999996L1080.29 0L1284.24 0L0 345.09999999999997z" fill="rgba(255, 255, 255, .025)"></path><path d="M1440 360L805.85 360L1440 291.9z" fill="rgba(0, 0, 0, .1)"></path><path d="M1440 291.9L805.85 360L436.35 360L1440 162.43999999999997z" fill="rgba(0, 0, 0, .075)"></path><path d="M1440 162.44L436.35 360L219.98000000000002 360L1440 79.64999999999999z" fill="rgba(0, 0, 0, .05)"></path><path d="M1440 79.64999999999998L219.98000000000002 360L89.04000000000002 360L1440 52.46999999999998z" fill="rgba(0, 0, 0, .025)"></path></g><defs><mask id="SvgjsMask1025"><rect width="1440" height="360" fill="#ffffff"></rect></mask></defs></svg>